<svg width="122" height="34" viewBox="0 0 122 34" fill="none" xmlns="http://www.w3.org/2000/svg">
<path d="M39.2681 27H29.5146V9.15332H39.2681V10.2886H30.772V17.0513H38.792V18.1865H30.772V25.8647H39.2681V27ZM56.3213 27H55.0396L44.4927 11.2163H44.4316C44.4479 11.6558 44.4601 12.1034 44.4683 12.5591C44.4845 13.0067 44.4967 13.4705 44.5049 13.9507C44.5212 14.4227 44.5293 14.911 44.5293 15.4155V27H43.333V9.15332H44.627L55.1372 24.8882H55.1982C55.1901 24.5301 55.1779 24.1151 55.1616 23.6431C55.1535 23.1711 55.1413 22.6868 55.125 22.1904C55.1169 21.694 55.1128 21.2261 55.1128 20.7866V9.15332H56.3213V27ZM74.9492 17.9058C74.9492 19.8996 74.5952 21.5719 73.8872 22.9229C73.1873 24.2738 72.1457 25.291 70.7622 25.9746C69.3869 26.6582 67.682 27 65.6475 27H61.375V9.15332H66.209C68.1133 9.15332 69.7124 9.48698 71.0063 10.1543C72.3003 10.8216 73.2809 11.8063 73.9482 13.1084C74.6156 14.4023 74.9492 16.0015 74.9492 17.9058ZM73.6309 17.9546C73.6309 16.2537 73.3542 14.8337 72.8008 13.6943C72.2474 12.555 71.401 11.7005 70.2617 11.1309C69.1224 10.5531 67.6779 10.2642 65.9282 10.2642H62.6323V25.8892H65.5864C68.2801 25.8892 70.2943 25.23 71.6289 23.9116C72.9635 22.5851 73.6309 20.5994 73.6309 17.9546ZM88.8896 27H78.9531V9.15332H88.8896V10.9844H81.0283V16.7583H88.438V18.5649H81.0283V25.1689H88.8896V27ZM97.6665 9.15332C99.1313 9.15332 100.34 9.33643 101.292 9.70264C102.252 10.0607 102.968 10.61 103.44 11.3506C103.912 12.0911 104.148 13.0352 104.148 14.1826C104.148 15.1266 103.978 15.916 103.636 16.5508C103.294 17.1774 102.846 17.686 102.293 18.0767C101.74 18.4673 101.15 18.7684 100.523 18.98L105.418 27H103.001L98.6309 19.5537H94.9199V27H92.8447V9.15332H97.6665ZM97.5444 10.9478H94.9199V17.7959H97.752C99.2087 17.7959 100.279 17.4989 100.962 16.9048C101.654 16.3107 102 15.4359 102 14.2803C102 13.0677 101.634 12.2091 100.901 11.7046C100.177 11.2 99.0581 10.9478 97.5444 10.9478ZM119.468 27L117.271 21.3359H110.118L107.933 27H105.833L112.815 9.08008H114.683L121.617 27H119.468ZM116.648 19.4927L114.561 13.8652C114.512 13.7188 114.431 13.4787 114.317 13.145C114.211 12.8114 114.101 12.4655 113.987 12.1074C113.873 11.7493 113.78 11.4604 113.707 11.2407C113.625 11.5744 113.536 11.908 113.438 12.2417C113.348 12.5672 113.259 12.8724 113.169 13.1572C113.08 13.4339 113.003 13.6699 112.938 13.8652L110.813 19.4927H116.648Z" fill="black"/>
<rect y="3" width="26" height="29" rx="5" fill="#7AE35E"/>
<path d="M21.2476 9.15332L15.1807 27H11.0547L5 9.15332H8.8208L12.1777 19.7734C12.2347 19.9525 12.3283 20.2902 12.4585 20.7866C12.5887 21.2749 12.7189 21.7957 12.8491 22.3491C12.9875 22.8944 13.0811 23.346 13.1299 23.7041C13.1787 23.346 13.2642 22.8944 13.3862 22.3491C13.5164 21.8039 13.6426 21.2871 13.7646 20.7988C13.8949 20.3024 13.9884 19.9606 14.0454 19.7734L17.4268 9.15332H21.2476Z" fill="#4518EC"/>
</svg>
